<svg xmlns="http://www.w3.org/2000/svg" width="53.02" height="55.435" viewBox="0 0 53.02 55.435">
  <path id="Icon_awesome-search" data-name="Icon awesome-search" d="M51.143,47.063l-10.1-10.6a2.371,2.371,0,0,0-1.722-.744H37.674A22.709,22.709,0,0,0,42.13,22.112C42.13,9.9,32.7,0,21.065,0S0,9.9,0,22.112,9.429,44.224,21.065,44.224a20.34,20.34,0,0,0,12.963-4.678v1.733a2.616,2.616,0,0,0,.709,1.807l10.1,10.6a2.341,2.341,0,0,0,3.433,0l2.866-3.009a2.655,2.655,0,0,0,.01-3.614ZM21.065,35.72C13.9,35.72,8.1,29.639,8.1,22.112S13.895,8.5,21.065,8.5s12.963,6.081,12.963,13.607S28.235,35.72,21.065,35.72Z" transform="translate(0.5 0.5)" fill="#fff" stroke="#fff" stroke-width="1"/>
</svg>
