<svg id="Icon_simple-iconjar" data-name="Icon simple-iconjar" xmlns="http://www.w3.org/2000/svg" width="59.467" height="76.435" viewBox="0 0 59.467 76.435">
  <path id="Icon_simple-iconjar-2" data-name="Icon simple-iconjar" d="M12.465,18.711a3.117,3.117,0,0,1-2.974-3.038c0-3.678,9.082-6.4,19.416-6.4.937,0,1.563,0,1.563-.8,0-1.44-3.13-1.917-3.13-4.315C27.34,1.6,30.315,0,34.071,0S40.8,1.6,40.8,4.159c0,2.4-3.13,2.717-3.13,4.315,0,.481.47.8,1.563.8,10.334,0,19.575,2.557,19.575,6.4a3,3,0,0,1-2.978,3.035H12.468ZM59.28,33.259a10.565,10.565,0,0,1,4.544,10.717L59.438,68.116a10.123,10.123,0,0,1-9.87,8.319H18.884A10.125,10.125,0,0,1,9.021,68.12L4.635,43.976a10.541,10.541,0,0,1,4.7-10.558c2.193-1.6,2.66-4.315,0-5.274-3.759-1.44-2.978-6.077.782-6.077H32.974c3.6,0,7.989,2.717,7.989,11.513s-4.074,7.994-4.074,14.23c0,2.72,2.193,5.6,4.852,5.921,4.544.478,7.2-1.28,7.2-7.675,0-6.561-3.756-9.6-3.756-15.032,0-6.557,4.068-9.118,6.73-9.118H58.5c3.756,0,4.541,4.64.782,6.08C56.62,29.1,57.087,31.822,59.28,33.259Z" transform="translate(-4.498)" fill="#fff"/>
</svg>
